<?xml version="1.0" encoding="UTF-8"?>
<svg id="Layer_1" data-name="Layer 1" xmlns="http://www.w3.org/2000/svg" xmlns:xlink="http://www.w3.org/1999/xlink" viewBox="0 0 295.28 295.28">
  <defs>
    <style>
      .cls-1 {
        fill: url(#radial-gradient-3);
      }

      .cls-2 {
        fill: url(#radial-gradient-2);
      }

      .cls-3 {
        fill: url(#radial-gradient);
      }
    </style>
    <radialGradient id="radial-gradient" cx="152.54" cy="196.92" fx="152.54" fy="196.92" r="147.64" gradientTransform="translate(-4.91 -49.28)" gradientUnits="userSpaceOnUse">
      <stop offset="0" stop-color="#fff" stop-opacity="0"/>
      <stop offset=".67" stop-color="#fff" stop-opacity=".05"/>
      <stop offset=".74" stop-color="#fff" stop-opacity=".06"/>
      <stop offset=".78" stop-color="#fff" stop-opacity=".09"/>
      <stop offset=".81" stop-color="#fff" stop-opacity=".15"/>
      <stop offset=".84" stop-color="#fff" stop-opacity=".22"/>
      <stop offset=".87" stop-color="#fff" stop-opacity=".33"/>
      <stop offset=".9" stop-color="#fff" stop-opacity=".45"/>
      <stop offset=".92" stop-color="#fff" stop-opacity=".6"/>
      <stop offset=".94" stop-color="#fff" stop-opacity=".77"/>
      <stop offset=".96" stop-color="#fff" stop-opacity=".96"/>
      <stop offset=".97" stop-color="#fff"/>
    </radialGradient>
    <radialGradient id="radial-gradient-2" cx="522.31" cy="-2299.29" fx="522.31" fy="-2299.29" r="111.61" gradientTransform="translate(800.1 2412.78) rotate(-28.86)" gradientUnits="userSpaceOnUse">
      <stop offset=".3" stop-color="#fff" stop-opacity="0"/>
      <stop offset=".52" stop-color="#fff" stop-opacity=".05"/>
      <stop offset=".64" stop-color="#fff" stop-opacity=".06"/>
      <stop offset=".7" stop-color="#fff" stop-opacity=".09"/>
      <stop offset=".76" stop-color="#fff" stop-opacity=".15"/>
      <stop offset=".81" stop-color="#fff" stop-opacity=".22"/>
      <stop offset=".85" stop-color="#fff" stop-opacity=".33"/>
      <stop offset=".89" stop-color="#fff" stop-opacity=".45"/>
      <stop offset=".93" stop-color="#fff" stop-opacity=".6"/>
      <stop offset=".96" stop-color="#fff" stop-opacity=".77"/>
      <stop offset=".99" stop-color="#fff" stop-opacity=".96"/>
      <stop offset="1" stop-color="#fff"/>
    </radialGradient>
    <radialGradient id="radial-gradient-3" cx="147.93" cy="146.9" fx="147.93" fy="146.9" r="78.88" gradientUnits="userSpaceOnUse">
      <stop offset="0" stop-color="#fff" stop-opacity="0"/>
      <stop offset=".25" stop-color="#fff" stop-opacity=".05"/>
      <stop offset=".43" stop-color="#fff" stop-opacity=".06"/>
      <stop offset=".54" stop-color="#fff" stop-opacity=".09"/>
      <stop offset=".62" stop-color="#fff" stop-opacity=".15"/>
      <stop offset=".69" stop-color="#fff" stop-opacity=".22"/>
      <stop offset=".76" stop-color="#fff" stop-opacity=".33"/>
      <stop offset=".82" stop-color="#fff" stop-opacity=".45"/>
      <stop offset=".88" stop-color="#fff" stop-opacity=".6"/>
      <stop offset=".94" stop-color="#fff" stop-opacity=".77"/>
      <stop offset=".99" stop-color="#fff" stop-opacity=".96"/>
      <stop offset="1" stop-color="#fff"/>
    </radialGradient>
  </defs>
  <path class="cls-3" d="M175.39,11.25l5.54,5.38c9.61,9.33,22.42,14.63,35.81,14.83l7.72.12c21.54.32,38.93,17.71,39.25,39.25l.12,7.72c.2,13.39,5.51,26.2,14.83,35.81l5.38,5.54c15,15.46,15,40.04,0,55.51l-5.38,5.54c-9.33,9.61-14.63,22.42-14.83,35.81l-.12,7.72c-.32,21.54-17.71,38.93-39.25,39.25l-7.72.12c-13.39.2-26.2,5.51-35.81,14.83l-5.54,5.38c-15.46,15-40.04,15-55.51,0l-5.54-5.38c-9.61-9.33-22.42-14.63-35.81-14.83l-7.72-.12c-21.54-.32-38.93-17.71-39.25-39.25l-.12-7.72c-.2-13.39-5.51-26.2-14.83-35.81l-5.38-5.54c-15-15.46-15-40.04,0-55.51l5.38-5.54c9.33-9.61,14.63-22.42,14.83-35.81l.12-7.72c.32-21.54,17.71-38.93,39.25-39.25l7.72-.12c13.39-.2,26.2-5.51,35.81-14.83l5.54-5.38c15.46-15,40.04-15,55.51,0Z"/>
  <path class="cls-2" d="M129.62,46.85h0c12.04,8.69,28.21,9.01,40.59.81h0c25.11-16.64,58.26,3.4,55.21,33.36h0c-1.5,14.77,6.3,28.94,19.59,35.56h0c26.96,13.43,26.19,52.15-1.29,64.49h0c-13.55,6.08-21.91,19.92-21,34.75h0c1.85,30.06-32.07,48.76-56.5,31.13h0c-12.04-8.69-28.21-9.01-40.59-.81h0c-25.11,16.64-58.26-3.4-55.21-33.36h0c1.5-14.77-6.3-28.94-19.59-35.56h0c-26.96-13.43-26.19-52.15,1.29-64.49h0c13.55-6.08,21.91-19.92,21-34.75h0c-1.85-30.06,32.07-48.76,56.5-31.13Z"/>
  <path class="cls-1" d="M170.72,78.73h0c4.49,9.49,14.39,15.2,24.85,14.35h0c21.22-1.73,34.9,21.97,22.79,39.48h0c-5.97,8.63-5.97,20.06,0,28.69h0c12.11,17.51-1.58,41.21-22.79,39.48h0c-10.46-.85-20.36,4.86-24.85,14.35h0c-9.11,19.24-36.48,19.24-45.59,0h0c-4.49-9.49-14.39-15.2-24.85-14.35h0c-21.22,1.73-34.9-21.97-22.79-39.48h0c5.97-8.63,5.97-20.06,0-28.69h0c-12.11-17.51,1.58-41.21,22.79-39.48h0c10.46.85,20.36-4.86,24.85-14.35h0c9.11-19.24,36.48-19.24,45.59,0Z"/>
</svg>
